<?xml version="1.0" standalone="no"?><!DOCTYPE svg PUBLIC "-//W3C//DTD SVG 1.1//EN" "http://www.w3.org/Graphics/SVG/1.1/DTD/svg11.dtd"><svg t="1558345727671" class="icon" style="" viewBox="0 0 1024 1024" version="1.1" xmlns="http://www.w3.org/2000/svg" p-id="2271" xmlns:xlink="http://www.w3.org/1999/xlink" width="200" height="200"><defs><style type="text/css"></style></defs><path d="M696.301 511.83H514.257V329.784c0-21.845-14.564-36.409-36.41-36.409s-36.408 14.564-36.408 36.409v218.453c0 21.846 14.563 36.41 36.409 36.41H696.3c21.845 0 36.409-14.564 36.409-36.41S718.146 511.83 696.3 511.83z" p-id="2272" fill="#666666"></path><path d="M514.257 2.105C230.267 2.105 4.532 227.84 4.532 511.829s225.735 509.725 509.725 509.725 509.724-225.735 509.724-509.725S798.246 2.105 514.257 2.105z m0 946.631c-240.3 0-436.907-196.608-436.907-436.907S273.958 74.923 514.257 74.923 951.163 271.53 951.163 511.829 754.555 948.736 514.257 948.736z" p-id="2273" fill="#666666"></path></svg>
